<svg preserveAspectRatio="none" overflow="visible" style="display: block;" width="29.1233" height="29.3874" viewBox="0 0 29.1233 29.3874" fill="none" xmlns="http://www.w3.org/2000/svg">
<g id="Group">
<g id="Group_2" opacity="0.2">
<path id="Vector" d="M16.2316 5.8071C16.73 5.03028 17.377 4.35968 18.1356 3.83391C18.8941 3.30813 19.7492 2.93755 20.6515 2.7435C21.5538 2.54944 22.4856 2.53575 23.3932 2.70319C24.3009 2.87063 25.1664 3.21591 25.9401 3.71916C26.7138 4.22241 27.3803 4.87369 27.9013 5.63552C28.4223 6.39735 28.7875 7.2547 28.9759 8.15821C29.1643 9.06173 29.1721 9.99359 28.999 10.9002C28.8259 11.8067 28.4752 12.6701 27.9671 13.4406L24.1521 19.3083C23.1398 20.8648 21.5507 21.9554 19.7343 22.3402C17.918 22.725 16.0232 22.3725 14.4667 21.3602C12.9102 20.348 11.8197 18.7589 11.4349 16.9425C11.0501 15.1261 11.4026 13.2313 12.4148 11.6748L16.2316 5.8071Z" fill="#1E1E1E"/>
<path id="Vector_2" fill-rule="evenodd" clip-rule="evenodd" d="M16.3751 18.4263C15.9897 18.1759 15.6574 17.8519 15.3971 17.473C15.1369 17.0941 14.9539 16.6676 14.8585 16.218C14.7631 15.7683 14.7572 15.3043 14.8412 14.8524C14.9252 14.4004 15.0973 13.9695 15.3478 13.5841L19.1646 7.71635C19.411 7.32223 19.7335 6.98115 20.1132 6.71302C20.4929 6.44489 20.9222 6.25507 21.3761 6.15466C21.8299 6.05425 22.2992 6.04524 22.7566 6.12818C23.214 6.21111 23.6502 6.38432 24.0399 6.63769C24.4297 6.89106 24.765 7.21952 25.0264 7.60389C25.2877 7.98827 25.4699 8.42086 25.5623 8.87642C25.6547 9.33197 25.6554 9.80137 25.5644 10.2572C25.4734 10.713 25.2925 11.1462 25.0323 11.5313L21.2173 17.4008C20.7112 18.1789 19.9167 18.7241 19.0086 18.9164C18.1005 19.1087 17.1532 18.9325 16.3751 18.4263ZM12.1016 18.7798C11.5143 17.6756 11.2336 16.4341 11.2887 15.1846C11.3438 13.9351 11.7326 12.7231 12.4148 11.6748L16.2298 5.8071C17.2421 4.25064 18.8312 3.16005 20.6476 2.77525C22.4639 2.39045 24.3587 2.74296 25.9152 3.75522C27.4717 4.76749 28.5622 6.35659 28.947 8.17295C29.3318 9.98931 28.9793 11.8841 27.9671 13.4406L24.1521 19.3083C23.4883 20.3299 22.5693 21.1605 21.4861 21.718C20.4029 22.2756 19.1929 22.5408 17.9758 22.4874C16.7587 22.434 15.5766 22.0639 14.5464 21.4137C13.5161 20.7634 12.6734 19.8556 12.1016 18.7798Z" fill="#1E1E1E"/>
<path id="Vector_3" d="M7.57258 12.7021C8.5963 11.1726 10.1812 10.1079 11.9841 9.73833C13.7871 9.36876 15.6631 9.72412 17.206 10.7275C18.7488 11.7308 19.8345 13.3015 20.2279 15.0994C20.6214 16.8973 20.2909 18.7778 19.3081 20.3338L15.4931 26.2016C14.481 27.7581 12.8922 28.8487 11.076 29.2337C9.25977 29.6187 7.36503 29.2664 5.80858 28.2543C4.25212 27.2423 3.16144 25.6534 2.77648 23.8372C2.39151 22.021 2.7438 20.1263 3.75583 18.5698L7.57258 12.7021Z" fill="#1E1E1E"/>
<path id="Vector_4" fill-rule="evenodd" clip-rule="evenodd" d="M7.71608 25.3196C6.93798 24.8135 6.39281 24.0189 6.20049 23.1109C6.00818 22.2028 6.18446 21.2555 6.69058 20.4773L10.5056 14.6096C10.7561 14.2242 11.08 13.8919 11.4589 13.6317C11.8379 13.3715 12.2643 13.1885 12.714 13.0931C13.1636 12.9977 13.6276 12.9918 14.0795 13.0758C14.5315 13.1597 14.9624 13.3318 15.3478 13.5823C15.7332 13.8328 16.0655 14.1568 16.3257 14.5357C16.5859 14.9146 16.7689 15.3411 16.8643 15.7907C16.9597 16.2404 16.9656 16.7044 16.8817 17.1563C16.7977 17.6082 16.6256 18.0392 16.3751 18.4246L12.5583 24.2941C12.0522 25.0722 11.2577 25.6174 10.3496 25.8097C9.44149 26.002 8.49419 25.8257 7.71608 25.3196ZM3.44258 25.6731C2.85528 24.5688 2.57458 23.3274 2.62967 22.0779C2.68476 20.8283 3.07363 19.6164 3.75583 18.5681L7.57083 12.7021C8.07194 11.9314 8.71993 11.267 9.47782 10.7467C10.2357 10.2265 11.0887 9.86061 11.9879 9.67C12.8872 9.47938 13.8153 9.46776 14.719 9.6358C15.6228 9.80383 16.4846 10.1482 17.2553 10.6493C18.026 11.1505 18.6904 11.7985 19.2107 12.5563C19.7309 13.3142 20.0968 14.1672 20.2874 15.0665C20.478 15.9657 20.4897 16.8938 20.3216 17.7976C20.1536 18.7013 19.8092 19.5632 19.3081 20.3338L15.4931 26.2016C14.8293 27.2231 13.9103 28.0537 12.8271 28.6113C11.7439 29.1688 10.5339 29.434 9.31681 29.3807C8.0997 29.3273 6.9176 28.9572 5.88736 28.3069C4.85712 27.6567 4.01442 26.7488 3.44258 25.6731Z" fill="#1E1E1E"/>
</g>
<path id="Vector_5" fill-rule="evenodd" clip-rule="evenodd" d="M12.7946 17.2678C11.6277 16.5086 10.8101 15.317 10.5216 13.9551C10.2332 12.5932 10.4974 11.1725 11.2563 10.0053L15.0713 4.13585C15.8306 2.96856 17.0226 2.15072 18.3849 1.86225C19.0594 1.71941 19.7555 1.71083 20.4334 1.837C21.1112 1.96317 21.7576 2.22162 22.3356 2.5976C22.9136 2.97357 23.4118 3.4597 23.8019 4.02824C24.192 4.59678 24.4663 5.23659 24.6092 5.91114C24.752 6.58569 24.7606 7.28176 24.6344 7.95963C24.5083 8.63749 24.2498 9.28387 23.8738 9.86185L20.0588 15.7296C19.2999 16.8968 18.1084 17.7147 16.7465 18.0035C15.3845 18.2923 13.9636 18.0283 12.7963 17.2696M10.5038 17.6073C9.45197 16.4628 8.81102 15.0006 8.68206 13.4515C8.55309 11.9023 8.94345 10.3543 9.79158 9.0516L13.6066 3.18385C14.1078 2.41317 14.7559 1.74876 15.5139 1.22855C16.2719 0.708348 17.1249 0.342536 18.0243 0.152001C18.9237 -0.0385329 19.8518 -0.0500572 20.7556 0.118086C21.6594 0.28623 22.5213 0.630748 23.292 1.13197C24.0626 1.63319 24.727 2.2813 25.2472 3.0393C25.7675 3.7973 26.1333 4.65033 26.3238 5.5497C26.5143 6.44907 26.5259 7.37716 26.3577 8.28099C26.1896 9.18481 25.8451 10.0467 25.3438 10.8173L21.5288 16.6851C20.9472 17.5805 20.1684 18.3309 19.2521 18.879C18.3358 19.4271 17.3063 19.7583 16.2423 19.8473C15.1783 19.9363 14.108 19.7807 13.1134 19.3925C12.1188 19.0042 11.2262 18.3936 10.5038 17.6073Z" fill="#1E1E1E"/>
<path id="Vector_6" fill-rule="evenodd" clip-rule="evenodd" d="M4.13558 24.1628C3.55755 23.7869 3.05923 23.3008 2.66909 22.7323C2.27894 22.1637 2.00462 21.5239 1.86177 20.8493C1.71893 20.1748 1.71037 19.4787 1.83658 18.8008C1.96278 18.1229 2.22129 17.4766 2.59733 16.8986L6.41408 11.0308C6.78994 10.4529 7.27596 9.95458 7.84439 9.56443C8.41282 9.17428 9.05254 8.89991 9.727 8.75699C10.4015 8.61407 11.0975 8.60539 11.7753 8.73146C12.4531 8.85752 13.0995 9.11586 13.6775 9.49172C14.2554 9.86758 14.7537 10.3536 15.1439 10.922C15.534 11.4905 15.8084 12.1302 15.9513 12.8046C16.0942 13.4791 16.1029 14.1751 15.9768 14.8529C15.8508 15.5308 15.5924 16.1771 15.2166 16.7551L11.4016 22.6228C10.6426 23.79 9.45118 24.608 8.08923 24.8968C6.72729 25.1856 5.3064 24.9216 4.13908 24.1628M1.84658 24.5006C0.7943 23.3559 0.153097 21.8934 0.0241284 20.3439C-0.10484 18.7944 0.285768 17.246 1.13433 15.9431L4.94933 10.0771C5.45044 9.30642 6.09843 8.64199 6.85632 8.12174C7.61421 7.60149 8.46715 7.23561 9.36644 7.045C10.2657 6.85438 11.1938 6.84276 12.0975 7.0108C13.0013 7.17883 13.8631 7.52324 14.6338 8.02435C15.4045 8.52545 16.0689 9.17345 16.5892 9.93134C17.1094 10.6892 17.4753 11.5422 17.6659 12.4415C17.8565 13.3407 17.8682 14.2688 17.7001 15.1726C17.5321 16.0763 17.1877 16.9382 16.6866 17.7088L12.8716 23.5766C12.2901 24.4721 11.5114 25.2227 10.5952 25.7709C9.67896 26.3192 8.64946 26.6506 7.58546 26.7397C6.52146 26.8289 5.45116 26.6735 4.45647 26.2854C3.46177 25.8973 2.56904 25.2868 1.84658 24.5006Z" fill="#1E1E1E"/>
</g>
</svg>
